<mxfile host="app.diagrams.net" modified="2024-03-14T06:31:39.056Z" agent="Mozilla/5.0 (Windows NT 10.0; Win64; x64) AppleWebKit/537.36 (KHTML, like Gecko) Chrome/122.0.0.0 Safari/537.36" etag="B-hKizldE7wMGYBI8PJr" version="24.0.6" type="device">
  <diagram name="Page-1" id="c7488fd3-1785-93aa-aadb-54a6760d102a">
    <mxGraphModel dx="1434" dy="746" grid="1" gridSize="10" guides="1" tooltips="1" connect="1" arrows="1" fold="1" page="1" pageScale="1" pageWidth="1100" pageHeight="850" background="none" math="0" shadow="0">
      <root>
        <mxCell id="0" />
        <mxCell id="1" parent="0" />
        <mxCell id="Y18K0-ZkQQWjHe0wcU7F-3" value="api&lt;div&gt;SpringGateway网关，api统一入口&lt;/div&gt;" style="rounded=0;whiteSpace=wrap;html=1;fillColor=#d80073;fontColor=#ffffff;strokeColor=#A50040;" vertex="1" parent="1">
          <mxGeometry x="110" y="10" width="460" height="60" as="geometry" />
        </mxCell>
        <mxCell id="Y18K0-ZkQQWjHe0wcU7F-4" value="" style="rounded=0;whiteSpace=wrap;html=1;fillColor=#ffe6cc;strokeColor=#d79b00;" vertex="1" parent="1">
          <mxGeometry x="110" y="230" width="460" height="80" as="geometry" />
        </mxCell>
        <mxCell id="Y18K0-ZkQQWjHe0wcU7F-5" value="sys-api&lt;div&gt;基础api&lt;/div&gt;&lt;div&gt;（用户、菜单）&lt;/div&gt;" style="rounded=0;whiteSpace=wrap;html=1;fillColor=#f8cecc;strokeColor=#b85450;" vertex="1" parent="1">
          <mxGeometry x="110" y="151" width="170" height="60" as="geometry" />
        </mxCell>
        <mxCell id="Y18K0-ZkQQWjHe0wcU7F-6" value="oms-api&lt;div&gt;主api&lt;/div&gt;&lt;div&gt;订单、售后、商品、店铺、消息处理模块&lt;/div&gt;" style="rounded=0;whiteSpace=wrap;html=1;fillColor=#dae8fc;strokeColor=#6c8ebf;" vertex="1" parent="1">
          <mxGeometry x="300" y="151" width="270" height="60" as="geometry" />
        </mxCell>
        <mxCell id="Y18K0-ZkQQWjHe0wcU7F-7" value="common&lt;div&gt;公共类库&lt;/div&gt;" style="rounded=0;whiteSpace=wrap;html=1;" vertex="1" parent="1">
          <mxGeometry x="110" y="80" width="220" height="60" as="geometry" />
        </mxCell>
        <mxCell id="Y18K0-ZkQQWjHe0wcU7F-8" value="security&lt;div&gt;token权限处理库&lt;/div&gt;" style="rounded=0;whiteSpace=wrap;html=1;" vertex="1" parent="1">
          <mxGeometry x="350" y="80" width="220" height="60" as="geometry" />
        </mxCell>
        <mxCell id="Y18K0-ZkQQWjHe0wcU7F-9" value="tao-api&lt;div&gt;天猫平台api&lt;/div&gt;" style="rounded=0;whiteSpace=wrap;html=1;" vertex="1" parent="1">
          <mxGeometry x="125" y="240" width="100" height="60" as="geometry" />
        </mxCell>
        <mxCell id="Y18K0-ZkQQWjHe0wcU7F-10" value="jd-api&lt;div&gt;京东平台api&lt;/div&gt;" style="rounded=0;whiteSpace=wrap;html=1;" vertex="1" parent="1">
          <mxGeometry x="235" y="240" width="100" height="60" as="geometry" />
        </mxCell>
        <mxCell id="Y18K0-ZkQQWjHe0wcU7F-11" value="dou-api&lt;div&gt;抖店平台api&lt;/div&gt;" style="rounded=0;whiteSpace=wrap;html=1;" vertex="1" parent="1">
          <mxGeometry x="345" y="240" width="100" height="60" as="geometry" />
        </mxCell>
        <mxCell id="Y18K0-ZkQQWjHe0wcU7F-13" value="pdd-api&lt;div&gt;拼多多平台api&lt;/div&gt;" style="rounded=0;whiteSpace=wrap;html=1;" vertex="1" parent="1">
          <mxGeometry x="455" y="240" width="100" height="60" as="geometry" />
        </mxCell>
      </root>
    </mxGraphModel>
  </diagram>
</mxfile>
